# xmcd CD database file
#
# Track frame offsets:
#	150
#	6920
#	23134
#	29539
#	45808
#	63134
#	75833
#	90257
#	115659
#	129232
#	136102
#	152440
#	159639
#	175541
#	179003
#
# Disc length: 2729 seconds
#
# Revision: 0
# Processed by: cddbd v1.5.2PL0 Copyright (c) Steve Scherf et al.
# Submitted via: CDex 1.51
#
DISCID=9b0aa70f
DTITLE=Christopher Willits - Tiger Flower Circle Sun
DYEAR=2010
DGENRE=New Age
TTITLE0=Portal
TTITLE1=Sun Body
TTITLE2=Sunlight Is You
TTITLE3=Green Faces
TTITLE4=Uplifting The Streets
TTITLE5=Plant Body
TTITLE6=New Life
TTITLE7=The Hands Connect To The Heart
TTITLE8=The Heart Connects To The Head
TTITLE9=Intend-Evolve
TTITLE10=You Are Always Surrounded By Stars
TTITLE11=Subconscious Transmission
TTITLE12=Light Into Branches
TTITLE13=Branches Into Flowers
TTITLE14=Flowers Into Stardust
EXTD=YEAR: 2010
EXTT0=
EXTT1=
EXTT2=
EXTT3=
EXTT4=
EXTT5=
EXTT6=
EXTT7=
EXTT8=
EXTT9=
EXTT10=
EXTT11=
EXTT12=
EXTT13=
EXTT14=
PLAYORDER=
